# Blender 3.6.23
# www.blender.org
mtllib untitled.mtl
o Cube
v -1.420985 6.111066 1.742051
v -1.420985 9.872528 1.742051
v -1.420985 6.111066 1.508852
v -1.420985 9.872528 1.508852
v 9.345057 6.111066 1.742051
v 9.345057 9.872528 1.742051
v 9.345057 6.111066 1.508852
v 9.345057 9.872528 1.508852
v 9.340211 11.119352 1.508852
v 9.340211 4.864240 1.508852
v 9.340211 4.864240 1.742051
v 9.340211 11.119352 1.742051
v 12.934591 8.041023 1.508852
v 12.934591 7.942572 1.508852
v 12.934591 7.942572 1.742051
v 12.934591 8.041023 1.742051
v -0.000000 0.092986 1.721399
v -0.000000 9.840324 1.721399
v 0.060559 0.092986 1.727363
v 0.060559 9.840324 1.727363
v 0.118790 0.092986 1.745028
v 0.118790 9.840324 1.745028
v 0.172457 0.092986 1.773713
v 0.172457 9.840324 1.773713
v 0.219496 0.092986 1.812317
v 0.219496 9.840324 1.812317
v 0.258100 0.092986 1.859356
v 0.258100 9.840324 1.859356
v 0.286785 0.092986 1.913023
v 0.286785 9.840324 1.913023
v 0.304450 0.092986 1.971254
v 0.304450 9.840324 1.971254
v 0.310414 0.092986 2.031813
v 0.310414 9.840324 2.031813
v 0.304450 0.092986 2.092372
v 0.304450 9.840324 2.092372
v 0.286785 0.092986 2.150604
v 0.286785 9.840324 2.150604
v 0.258100 0.092986 2.204270
v 0.258100 9.840324 2.204270
v 0.219496 0.092986 2.251309
v 0.219496 9.840324 2.251309
v 0.172457 0.092986 2.289913
v 0.172457 9.840324 2.289913
v 0.118790 0.092986 2.318598
v 0.118790 9.840324 2.318598
v 0.060559 0.092986 2.336263
v 0.060559 9.840324 2.336263
v -0.000000 0.092986 2.342227
v -0.000000 9.840324 2.342227
v -0.060559 0.092986 2.336263
v -0.060559 9.840324 2.336263
v -0.118791 0.092986 2.318598
v -0.118791 9.840324 2.318598
v -0.172457 0.092986 2.289913
v -0.172457 9.840324 2.289913
v -0.219496 0.092986 2.251309
v -0.219496 9.840324 2.251309
v -0.258100 0.092986 2.204270
v -0.258100 9.840324 2.204270
v -0.286786 0.092986 2.150604
v -0.286786 9.840324 2.150604
v -0.304450 0.092986 2.092372
v -0.304450 9.840324 2.092372
v -0.310414 0.092986 2.031813
v -0.310414 9.840324 2.031813
v -0.304450 0.092986 1.971254
v -0.304450 9.840324 1.971254
v -0.286786 0.092986 1.913023
v -0.286786 9.840324 1.913023
v -0.258100 0.092986 1.859356
v -0.258100 9.840324 1.859356
v -0.219496 0.092986 1.812317
v -0.219496 9.840324 1.812317
v -0.172457 0.092986 1.773713
v -0.172457 9.840324 1.773713
v -0.118791 0.092986 1.745028
v -0.118791 9.840324 1.745028
v -0.060559 0.092986 1.727363
v -0.060559 9.840324 1.727363
v 8.161116 0.092986 1.721399
v 8.161116 9.840324 1.721399
v 8.221674 0.092986 1.727363
v 8.221674 9.840324 1.727363
v 8.279905 0.092986 1.745028
v 8.279905 9.840324 1.745028
v 8.333572 0.092986 1.773713
v 8.333572 9.840324 1.773713
v 8.380611 0.092986 1.812317
v 8.380611 9.840324 1.812317
v 8.419215 0.092986 1.859356
v 8.419215 9.840324 1.859356
v 8.447901 0.092986 1.913023
v 8.447901 9.840324 1.913023
v 8.465565 0.092986 1.971254
v 8.465565 9.840324 1.971254
v 8.471529 0.092986 2.031813
v 8.471529 9.840324 2.031813
v 8.465565 0.092986 2.092372
v 8.465565 9.840324 2.092372
v 8.447901 0.092986 2.150604
v 8.447901 9.840324 2.150604
v 8.419215 0.092986 2.204270
v 8.419215 9.840324 2.204270
v 8.380611 0.092986 2.251309
v 8.380611 9.840324 2.251309
v 8.333572 0.092986 2.289913
v 8.333572 9.840324 2.289913
v 8.279905 0.092986 2.318598
v 8.279905 9.840324 2.318598
v 8.221674 0.092986 2.336263
v 8.221674 9.840324 2.336263
v 8.161116 0.092986 2.342227
v 8.161116 9.840324 2.342227
v 8.100556 0.092986 2.336263
v 8.100556 9.840324 2.336263
v 8.042324 0.092986 2.318598
v 8.042324 9.840324 2.318598
v 7.988658 0.092986 2.289913
v 7.988658 9.840324 2.289913
v 7.941619 0.092986 2.251309
v 7.941619 9.840324 2.251309
v 7.903015 0.092986 2.204270
v 7.903015 9.840324 2.204270
v 7.874330 0.092986 2.150604
v 7.874330 9.840324 2.150604
v 7.856666 0.092986 2.092372
v 7.856666 9.840324 2.092372
v 7.850701 0.092986 2.031813
v 7.850701 9.840324 2.031813
v 7.856666 0.092986 1.971254
v 7.856666 9.840324 1.971254
v 7.874330 0.092986 1.913023
v 7.874330 9.840324 1.913023
v 7.903015 0.092986 1.859356
v 7.903015 9.840324 1.859356
v 7.941619 0.092986 1.812317
v 7.941619 9.840324 1.812317
v 7.988658 0.092986 1.773713
v 7.988658 9.840324 1.773713
v 8.042324 0.092986 1.745028
v 8.042324 9.840324 1.745028
v 8.100556 0.092986 1.727363
v 8.100556 9.840324 1.727363
v 8.161116 4.966655 1.721399
v 8.221674 4.966656 1.727363
v 8.279905 4.966656 1.745028
v 8.333572 4.966656 1.773713
v 8.380611 4.966656 1.812317
v 8.419215 4.966656 1.859356
v 8.447901 4.966656 1.913023
v 8.465565 4.966656 1.971254
v 8.471529 4.966656 2.031813
v 8.465565 4.966656 2.092372
v 8.447901 4.966656 2.150604
v 8.419215 4.966656 2.204270
v 8.380611 4.966656 2.251309
v 8.333572 4.966656 2.289913
v 8.279905 4.966656 2.318598
v 8.221674 4.966656 2.336263
v 8.161116 4.966656 2.342227
v 8.100556 4.966656 2.336263
v 8.042324 4.966656 2.318598
v 7.988658 4.966656 2.289913
v 7.941619 4.966656 2.251309
v 7.903015 4.966656 2.204270
v 7.874330 4.966656 2.150604
v 7.856666 4.966656 2.092372
v 7.850701 4.966656 2.031813
v 7.856666 4.966656 1.971254
v 7.874330 4.966656 1.913023
v 7.903015 4.966656 1.859356
v 7.941619 4.966656 1.812317
v 7.988658 4.966656 1.773713
v 8.042324 4.966656 1.745028
v 8.100556 4.966656 1.727363
v 8.221674 2.529821 1.727363
v 8.279905 2.529821 1.745028
v 8.333572 2.529821 1.773713
v 8.380611 2.529821 1.812317
v 8.419215 2.529821 1.859356
v 8.447901 2.529821 1.913023
v 8.465565 2.529821 1.971254
v 8.471529 2.529821 2.031813
v 8.465565 2.529821 2.092372
v 8.447901 2.529821 2.150604
v 8.419215 2.529821 2.204270
v 8.380611 2.529821 2.251309
v 8.333572 2.529821 2.289913
v 8.279905 2.529821 2.318598
v 8.221674 2.529821 2.336263
v 8.161116 2.529821 2.342227
v 8.100556 2.529821 2.336263
v 8.042324 2.529821 2.318598
v 7.988658 2.529821 2.289913
v 7.941619 2.529821 2.251309
v 7.903015 2.529821 2.204270
v 7.874330 2.529821 2.150604
v 7.856666 2.529821 2.092372
v 7.850701 2.529821 2.031813
v 7.856666 2.529821 1.971254
v 7.874330 2.529821 1.913023
v 7.903015 2.529821 1.859356
v 7.941619 2.529821 1.812317
v 7.988658 2.529821 1.773713
v 8.042324 2.529821 1.745028
v 8.100556 2.529821 1.727363
v 8.161116 2.529821 1.721399
v 8.221674 1.311404 1.727363
v 8.279905 1.311404 1.745028
v 8.333572 1.311404 1.773713
v 8.380611 1.311404 1.812317
v 8.419215 1.311404 1.859356
v 8.447901 1.311404 1.913023
v 8.465565 1.311404 1.971254
v 8.471529 1.311404 2.031813
v 8.465565 1.311404 2.092372
v 8.447901 1.311404 2.150604
v 8.419215 1.311404 2.204270
v 8.380611 1.311404 2.251309
v 8.333572 1.311404 2.289913
v 8.279905 1.311404 2.318598
v 8.221674 1.311404 2.336263
v 8.161116 1.311404 2.342227
v 8.100556 1.311404 2.336263
v 8.042324 1.311404 2.318598
v 7.988658 1.311404 2.289913
v 7.941619 1.311404 2.251309
v 7.903015 1.311404 2.204270
v 7.874330 1.311404 2.150604
v 7.856666 1.311404 2.092372
v 7.850701 1.311404 2.031813
v 7.856666 1.311404 1.971254
v 7.874330 1.311404 1.913023
v 7.903015 1.311404 1.859356
v 7.941619 1.311404 1.812317
v 7.988658 1.311404 1.773713
v 8.042324 1.311404 1.745028
v 8.100556 1.311404 1.727363
v 8.161116 1.311404 1.721399
v 8.161116 3.748238 1.721399
v 8.221674 3.748239 1.727363
v 8.279905 3.748239 1.745028
v 8.333572 3.748239 1.773713
v 8.380611 3.748239 1.812317
v 8.419215 3.748239 1.859356
v 8.447901 3.748239 1.913023
v 8.465565 3.748239 1.971254
v 8.471529 3.748239 2.031813
v 8.465565 3.748239 2.092372
v 8.447901 3.748239 2.150604
v 8.419215 3.748239 2.204270
v 8.380611 3.748239 2.251309
v 8.333572 3.748239 2.289913
v 8.279905 3.748239 2.318598
v 8.221674 3.748239 2.336263
v 8.161116 3.748239 2.342227
v 8.100556 3.748239 2.336263
v 8.042324 3.748239 2.318598
v 7.988658 3.748239 2.289913
v 7.941619 3.748239 2.251309
v 7.903015 3.748239 2.204270
v 7.874330 3.748239 2.150604
v 7.856666 3.748239 2.092372
v 7.850701 3.748239 2.031813
v 7.856666 3.748239 1.971254
v 7.874330 3.748239 1.913023
v 7.903015 3.748239 1.859356
v 7.941619 3.748239 1.812317
v 7.988658 3.748239 1.773713
v 8.042324 3.748239 1.745028
v 8.100556 3.748239 1.727363
vn -1.0000 -0.0000 -0.0000
vn -0.0000 -0.0000 -1.0000
vn -1.0000 -0.0039 -0.0000
vn -0.0000 -0.0000 1.0000
vn -0.0000 -1.0000 -0.0000
vn -0.0000 1.0000 -0.0000
vn -1.0000 0.0039 -0.0000
vn 0.8720 -0.4895 -0.0000
vn 0.8720 0.4895 -0.0000
vn 0.6505 -0.7595 -0.0000
vn 0.6505 0.7595 -0.0000
vn 0.0980 -0.0000 -0.9952
vn 0.1479 -0.0000 -0.9890
vn 0.3610 -0.0000 -0.9326
vn 0.5435 -0.0000 -0.8394
vn 0.7002 -0.0000 -0.7139
vn 0.8279 -0.0000 -0.5609
vn 0.9223 -0.0000 -0.3864
vn 0.9804 -0.0000 -0.1970
vn 1.0000 -0.0000 -0.0000
vn 0.9804 -0.0000 0.1970
vn 0.9223 -0.0000 0.3864
vn 0.8279 -0.0000 0.5609
vn 0.7002 -0.0000 0.7139
vn 0.5435 -0.0000 0.8394
vn 0.3610 -0.0000 0.9326
vn 0.1479 -0.0000 0.9890
vn 0.0980 -0.0000 0.9952
vn -0.0980 -0.0000 0.9952
vn -0.1479 -0.0000 0.9890
vn -0.3610 -0.0000 0.9326
vn -0.5435 -0.0000 0.8394
vn -0.7002 -0.0000 0.7139
vn -0.8279 -0.0000 0.5609
vn -0.9223 -0.0000 0.3864
vn -0.9804 -0.0000 0.1970
vn -0.9804 -0.0000 -0.1970
vn -0.9223 -0.0000 -0.3864
vn -0.8279 -0.0000 -0.5609
vn -0.7002 -0.0000 -0.7139
vn -0.5435 -0.0000 -0.8394
vn -0.3610 -0.0000 -0.9326
vn -0.1479 -0.0000 -0.9890
vn -0.0980 -0.0000 -0.9952
vt 0.271586 1.000000
vt 0.227273 1.000000
vt 0.227273 0.726942
vt 0.271586 0.726942
vt 0.844088 0.633513
vt 0.845921 0.873580
vt 0.578855 0.879250
vt 0.581531 0.626781
vt 0.754969 0.546117
vt 0.754969 0.819175
vt 0.740280 0.819175
vt 0.740280 0.546117
vt 0.703450 0.432989
vt 0.688757 0.432989
vt 0.688757 0.342450
vt 0.703450 0.342450
vt 0.740280 0.273058
vt 0.740280 0.546117
vt 0.695967 0.546117
vt 0.695967 0.273058
vt 0.740280 0.819175
vt 0.695967 0.819175
vt 0.712444 0.342450
vt 0.712444 0.424574
vt 0.703450 0.384159
vt 0.703450 0.382866
vt 0.754969 0.471369
vt 0.754969 0.322428
vt 0.755005 0.273058
vt 0.755005 0.520739
vt 0.755005 0.570109
vt 0.755005 0.719050
vt 0.754969 0.768420
vt 0.754969 0.520739
vt 0.754969 0.273058
vt 0.754969 0.546117
vt 0.740280 0.546117
vt 0.733392 0.273058
vt 0.732233 0.273058
vt 0.732233 0.000000
vt 0.733392 0.000000
vt 0.769657 0.000000
vt 0.769657 0.273058
vt 0.695967 0.273058
vt 0.695967 0.000000
vt 0.852142 0.948046
vt 0.849887 0.556725
vt 0.970240 0.750542
vt 0.970240 0.754229
vt 0.813621 0.377088
vt 0.814502 0.377088
vt 0.814502 0.377141
vt 0.813621 0.377141
vt 0.814502 0.377300
vt 0.813621 0.377300
vt 0.814502 0.377558
vt 0.813621 0.377558
vt 0.814502 0.377905
vt 0.813621 0.377905
vt 0.814502 0.378327
vt 0.813621 0.378327
vt 0.814502 0.378809
vt 0.813621 0.378809
vt 0.831228 0.373135
vt 0.836793 0.373135
vt 0.836793 0.376439
vt 0.831228 0.376439
vt 0.836793 0.379876
vt 0.831228 0.379876
vt 0.836793 0.383313
vt 0.831228 0.383313
vt 0.836793 0.386617
vt 0.831228 0.386617
vt 0.836793 0.389663
vt 0.831228 0.389663
vt 0.836793 0.392332
vt 0.831228 0.392332
vt 0.836793 0.394523
vt 0.831228 0.394523
vt 0.836793 0.396151
vt 0.831228 0.396151
vt 0.836793 0.397154
vt 0.831228 0.397154
vt 0.836793 0.397492
vt 0.831228 0.397492
vt 0.836793 0.362260
vt 0.842359 0.362260
vt 0.842359 0.362599
vt 0.836793 0.362599
vt 0.842359 0.363601
vt 0.836793 0.363601
vt 0.842359 0.365229
vt 0.836793 0.365229
vt 0.842359 0.367420
vt 0.836793 0.367420
vt 0.842359 0.370089
vt 0.836793 0.370089
vt 0.842359 0.373135
vt 0.842359 0.376439
vt 0.842359 0.379876
vt 0.842359 0.383313
vt 0.814502 0.380420
vt 0.815383 0.380420
vt 0.815383 0.380943
vt 0.814502 0.380943
vt 0.815383 0.381425
vt 0.814502 0.381425
vt 0.815383 0.381848
vt 0.814502 0.381848
vt 0.815383 0.382194
vt 0.814502 0.382194
vt 0.815383 0.382452
vt 0.814502 0.382452
vt 0.693856 0.392707
vt 0.693394 0.396511
vt 0.692942 0.392695
vt 0.692515 0.381408
vt 0.692132 0.363082
vt 0.691806 0.338421
vt 0.691549 0.308375
vt 0.691373 0.274096
vt 0.691283 0.236903
vt 0.691283 0.198225
vt 0.691373 0.159547
vt 0.691549 0.122358
vt 0.691806 0.088085
vt 0.692132 0.058046
vt 0.692515 0.033395
vt 0.692942 0.015080
vt 0.693394 0.003803
vt 0.693856 0.000000
vt 0.694308 0.003815
vt 0.694735 0.015103
vt 0.695118 0.033429
vt 0.695444 0.058089
vt 0.695701 0.088136
vt 0.695877 0.122415
vt 0.695967 0.159608
vt 0.695967 0.198286
vt 0.695877 0.236963
vt 0.695701 0.274153
vt 0.695444 0.308426
vt 0.695118 0.338465
vt 0.694735 0.363116
vt 0.694308 0.381431
vt 0.815383 0.382611
vt 0.814502 0.382611
vt 0.815383 0.382664
vt 0.814502 0.382664
vt 0.688710 0.396511
vt 0.688257 0.392695
vt 0.687831 0.381408
vt 0.687447 0.363082
vt 0.687121 0.338421
vt 0.686865 0.308375
vt 0.686688 0.274096
vt 0.686598 0.236903
vt 0.686598 0.198225
vt 0.686688 0.159547
vt 0.686865 0.122358
vt 0.687121 0.088085
vt 0.687447 0.058046
vt 0.687831 0.033395
vt 0.688257 0.015080
vt 0.688710 0.003803
vt 0.689171 0.000000
vt 0.689624 0.003815
vt 0.690050 0.015103
vt 0.690434 0.033429
vt 0.690760 0.058089
vt 0.691016 0.088136
vt 0.691193 0.122415
vt 0.691283 0.159608
vt 0.691283 0.198286
vt 0.691193 0.236963
vt 0.691016 0.274153
vt 0.690760 0.308426
vt 0.690434 0.338465
vt 0.690050 0.363116
vt 0.689624 0.381431
vt 0.689171 0.392707
vt 0.143834 0.168228
vt 0.144274 0.168228
vt 0.144274 0.168282
vt 0.143834 0.168282
vt 0.144274 0.168440
vt 0.143834 0.168440
vt 0.144274 0.168698
vt 0.143834 0.168698
vt 0.144274 0.169044
vt 0.143834 0.169044
vt 0.144274 0.169466
vt 0.143834 0.169466
vt 0.144274 0.169948
vt 0.143834 0.169948
vt 0.168070 0.193527
vt 0.164048 0.193527
vt 0.164048 0.188750
vt 0.168070 0.188750
vt 0.164048 0.183783
vt 0.168070 0.183783
vt 0.164048 0.178816
vt 0.168070 0.178816
vt 0.164048 0.174040
vt 0.168070 0.174040
vt 0.164048 0.169638
vt 0.168070 0.169638
vt 0.164048 0.165780
vt 0.168070 0.165780
vt 0.164048 0.162614
vt 0.168070 0.162614
vt 0.164048 0.160261
vt 0.168070 0.160261
vt 0.164048 0.158812
vt 0.168070 0.158812
vt 0.164048 0.158323
vt 0.168070 0.158323
vt 0.176113 0.209244
vt 0.172092 0.209244
vt 0.172092 0.208755
vt 0.176113 0.208755
vt 0.172092 0.207306
vt 0.176113 0.207306
vt 0.172092 0.204953
vt 0.176113 0.204953
vt 0.172092 0.201787
vt 0.176113 0.201787
vt 0.172092 0.197929
vt 0.176113 0.197929
vt 0.172092 0.193527
vt 0.176113 0.193527
vt 0.172092 0.188750
vt 0.176113 0.188750
vt 0.172092 0.183783
vt 0.176113 0.183783
vt 0.172092 0.178816
vt 0.176113 0.178816
vt 0.172092 0.174040
vt 0.176113 0.174040
vt 0.142953 0.172080
vt 0.143393 0.172080
vt 0.143393 0.172562
vt 0.142953 0.172562
vt 0.143393 0.172984
vt 0.142953 0.172984
vt 0.143393 0.173331
vt 0.142953 0.173331
vt 0.143393 0.173588
vt 0.142953 0.173588
vt 0.693856 0.789218
vt 0.693394 0.793021
vt 0.692942 0.789206
vt 0.692515 0.777918
vt 0.692132 0.759592
vt 0.691806 0.734932
vt 0.691549 0.704885
vt 0.691373 0.670607
vt 0.691283 0.633413
vt 0.691283 0.594735
vt 0.691373 0.556058
vt 0.691549 0.518869
vt 0.691806 0.484596
vt 0.692132 0.454557
vt 0.692515 0.429906
vt 0.692942 0.411590
vt 0.693394 0.400314
vt 0.693856 0.396511
vt 0.694308 0.400326
vt 0.694735 0.411614
vt 0.695118 0.429940
vt 0.695444 0.454600
vt 0.695701 0.484647
vt 0.695877 0.518925
vt 0.695967 0.556118
vt 0.695967 0.594797
vt 0.695877 0.633474
vt 0.695701 0.670663
vt 0.695444 0.704936
vt 0.695118 0.734975
vt 0.694735 0.759626
vt 0.694308 0.777942
vt 0.143393 0.173747
vt 0.142953 0.173747
vt 0.143393 0.173800
vt 0.142953 0.173800
vt 0.688710 0.793021
vt 0.688257 0.789206
vt 0.687831 0.777918
vt 0.687447 0.759592
vt 0.687121 0.734932
vt 0.686865 0.704885
vt 0.686688 0.670607
vt 0.686598 0.633414
vt 0.686598 0.594735
vt 0.686688 0.556058
vt 0.686865 0.518869
vt 0.687121 0.484596
vt 0.687447 0.454557
vt 0.687831 0.429906
vt 0.688257 0.411590
vt 0.688710 0.400314
vt 0.689171 0.396511
vt 0.689624 0.400326
vt 0.690050 0.411614
vt 0.690434 0.429940
vt 0.690760 0.454600
vt 0.691016 0.484647
vt 0.691193 0.518925
vt 0.691283 0.556119
vt 0.691283 0.594797
vt 0.691193 0.633474
vt 0.691016 0.670664
vt 0.690760 0.704936
vt 0.690434 0.734976
vt 0.690050 0.759626
vt 0.689624 0.777942
vt 0.689171 0.789218
vt 0.180713 0.564056
vt 0.179563 0.564056
vt 0.179563 0.563496
vt 0.180713 0.563496
vt 0.180713 0.565715
vt 0.179563 0.565715
vt 0.180713 0.568407
vt 0.179563 0.568407
vt 0.180713 0.572032
vt 0.179563 0.572032
vt 0.180713 0.576448
vt 0.179563 0.576448
vt 0.180713 0.581486
vt 0.179563 0.581486
vt 0.643536 0.292561
vt 0.629182 0.292561
vt 0.629182 0.224377
vt 0.643536 0.224377
vt 0.643536 0.363471
vt 0.629182 0.363471
vt 0.643536 0.434381
vt 0.629182 0.434381
vt 0.643536 0.502565
vt 0.629182 0.502565
vt 0.195588 0.408730
vt 0.196813 0.408730
vt 0.196813 0.414095
vt 0.195588 0.414095
vt 0.195588 0.404027
vt 0.196813 0.404027
vt 0.195588 0.400167
vt 0.196813 0.400167
vt 0.195588 0.397300
vt 0.196813 0.397300
vt 0.195588 0.395534
vt 0.196813 0.395534
vt 0.195588 0.394937
vt 0.196813 0.394937
vt 0.205392 0.456408
vt 0.206618 0.456408
vt 0.206618 0.457004
vt 0.205392 0.457004
vt 0.200990 0.601815
vt 0.200852 0.601815
vt 0.200852 0.601616
vt 0.200990 0.601616
vt 0.200990 0.602138
vt 0.200852 0.602138
vt 0.200990 0.602572
vt 0.200852 0.602572
vt 0.200990 0.603102
vt 0.200852 0.603102
vt 0.200990 0.603706
vt 0.200852 0.603706
vt 0.164580 0.620068
vt 0.166196 0.620068
vt 0.166196 0.627746
vt 0.164580 0.627746
vt 0.164580 0.612082
vt 0.166196 0.612082
vt 0.164580 0.604096
vt 0.166196 0.604096
vt 0.164580 0.596418
vt 0.166196 0.596418
vt 0.204806 0.584451
vt 0.204936 0.584451
vt 0.204936 0.585018
vt 0.204806 0.585018
vt 0.204806 0.583954
vt 0.204936 0.583954
vt 0.204806 0.583546
vt 0.204936 0.583546
vt 0.204806 0.583242
vt 0.204936 0.583242
vt 0.204806 0.583055
vt 0.204936 0.583055
vt 0.204806 0.582992
vt 0.204936 0.582992
vt 0.136717 0.269035
vt 0.136769 0.269035
vt 0.136769 0.269060
vt 0.136717 0.269060
vt 0.136769 0.269135
vt 0.136717 0.269135
vt 0.136769 0.269256
vt 0.136717 0.269256
vt 0.136769 0.269418
vt 0.136717 0.269418
vt 0.136769 0.269617
vt 0.136717 0.269617
vt 0.136769 0.269843
vt 0.136717 0.269843
vt 0.113511 0.255862
vt 0.114404 0.255862
vt 0.114404 0.260103
vt 0.113511 0.260103
vt 0.114404 0.264513
vt 0.113511 0.264513
vt 0.114404 0.268923
vt 0.113511 0.268923
vt 0.114404 0.273163
vt 0.113511 0.273163
vt 0.137216 0.270751
vt 0.137158 0.270751
vt 0.137158 0.270496
vt 0.137216 0.270496
vt 0.137158 0.270273
vt 0.137216 0.270273
vt 0.137158 0.270089
vt 0.137216 0.270089
vt 0.137158 0.269953
vt 0.137216 0.269953
vt 0.137158 0.269869
vt 0.137216 0.269869
vt 0.176269 0.277343
vt 0.177205 0.277343
vt 0.177205 0.277798
vt 0.176269 0.277798
vt 0.168780 0.230394
vt 0.169716 0.230394
vt 0.169716 0.230849
vt 0.168780 0.230849
vt 0.169716 0.232198
vt 0.168780 0.232198
vt 0.169716 0.234388
vt 0.168780 0.234388
vt 0.169716 0.237336
vt 0.168780 0.237336
vt 0.169716 0.240928
vt 0.168780 0.240928
vt 0.169716 0.245026
vt 0.168780 0.245026
vt 0.672244 0.502565
vt 0.657890 0.502565
vt 0.657890 0.434381
vt 0.672244 0.434381
vt 0.657890 0.363471
vt 0.672244 0.363471
vt 0.657890 0.292561
vt 0.672244 0.292561
vt 0.657890 0.224377
vt 0.672244 0.224377
vt 0.190934 0.261673
vt 0.190104 0.261673
vt 0.190104 0.258037
vt 0.190934 0.258037
vt 0.190104 0.254850
vt 0.190934 0.254850
vt 0.190104 0.252234
vt 0.190934 0.252234
vt 0.190104 0.250291
vt 0.190934 0.250291
vt 0.190104 0.249094
vt 0.190934 0.249094
vt 0.190104 0.248690
vt 0.190934 0.248690
vt 0.170727 0.215420
vt 0.172211 0.215420
vt 0.172211 0.216141
vt 0.170727 0.216141
vt 0.170727 0.213282
vt 0.172211 0.213282
vt 0.170727 0.209810
vt 0.172211 0.209810
vt 0.170727 0.205138
vt 0.172211 0.205138
vt 0.170727 0.199446
vt 0.172211 0.199446
vt 0.170727 0.192951
vt 0.172211 0.192951
vt 0.170727 0.185904
vt 0.172211 0.185904
vt 0.170727 0.178575
vt 0.172211 0.178575
vt 0.170727 0.171246
vt 0.172211 0.171246
vt 0.170727 0.164199
vt 0.172211 0.164199
vt 0.170727 0.157704
vt 0.172211 0.157704
vt 0.170727 0.152012
vt 0.172211 0.152012
vt 0.170727 0.147340
vt 0.172211 0.147340
vt 0.170727 0.143868
vt 0.172211 0.143868
vt 0.170727 0.141731
vt 0.172211 0.141731
vt 0.170727 0.141009
vt 0.172211 0.141009
vt 0.182596 0.215419
vt 0.184079 0.215419
vt 0.184079 0.216141
vt 0.182596 0.216141
vt 0.182596 0.213282
vt 0.184079 0.213282
vt 0.182596 0.209810
vt 0.184079 0.209810
vt 0.182596 0.205138
vt 0.184079 0.205138
vt 0.182596 0.199446
vt 0.184079 0.199446
vt 0.182596 0.192951
vt 0.184079 0.192951
vt 0.182596 0.185904
vt 0.184079 0.185904
vt 0.182596 0.178575
vt 0.184079 0.178575
vt 0.182596 0.171246
vt 0.184079 0.171246
vt 0.182596 0.164199
vt 0.184079 0.164199
vt 0.182596 0.157704
vt 0.184079 0.157704
vt 0.182596 0.152012
vt 0.184079 0.152012
vt 0.182596 0.147340
vt 0.184079 0.147340
vt 0.182596 0.143868
vt 0.184079 0.143868
vt 0.182596 0.141731
vt 0.184079 0.141731
vt 0.182596 0.141009
vt 0.184079 0.141009
vt 0.156222 0.342370
vt 0.156322 0.342370
vt 0.156322 0.342419
vt 0.156222 0.342419
vt 0.156322 0.342564
vt 0.156222 0.342564
vt 0.156322 0.342799
vt 0.156222 0.342799
vt 0.156322 0.343115
vt 0.156222 0.343115
vt 0.156322 0.343501
vt 0.156222 0.343501
vt 0.156322 0.343941
vt 0.156222 0.343941
vt 0.115101 0.327437
vt 0.116670 0.327437
vt 0.116670 0.334888
vt 0.115101 0.334888
vt 0.116670 0.342638
vt 0.115101 0.342638
vt 0.116670 0.350387
vt 0.115101 0.350387
vt 0.116670 0.357838
vt 0.115101 0.357838
vt 0.154006 0.345202
vt 0.154095 0.345202
vt 0.154095 0.345589
vt 0.154006 0.345589
vt 0.154095 0.345928
vt 0.154006 0.345928
vt 0.154095 0.346206
vt 0.154006 0.346206
vt 0.154095 0.346413
vt 0.154006 0.346413
vt 0.154095 0.346540
vt 0.154006 0.346540
vt 0.187058 0.327758
vt 0.186249 0.327758
vt 0.186249 0.327365
vt 0.187058 0.327365
vt 0.193528 0.368327
vt 0.192719 0.368327
vt 0.192719 0.367934
vt 0.193528 0.367934
vt 0.192719 0.366768
vt 0.193528 0.366768
vt 0.192719 0.364875
vt 0.193528 0.364875
vt 0.192719 0.362328
vt 0.193528 0.362328
vt 0.192719 0.359225
vt 0.193528 0.359225
vt 0.192719 0.355684
vt 0.193528 0.355684
vt 0.174140 0.333728
vt 0.173220 0.333728
vt 0.173220 0.329703
vt 0.174140 0.329703
vt 0.173220 0.326175
vt 0.174140 0.326175
vt 0.173220 0.323279
vt 0.174140 0.323279
vt 0.173220 0.321128
vt 0.174140 0.321128
vt 0.173220 0.319803
vt 0.174140 0.319803
vt 0.173220 0.319356
vt 0.174140 0.319356
s 1
usemtl Material.004
f 1/1/1 2/2/1 4/3/1 3/4/1
f 3/5/2 4/6/2 8/7/2 7/8/2
f 8/9/3 6/10/3 12/11/3 9/12/3
f 5/13/4 6/14/4 2/15/4 1/16/4
f 3/17/5 7/18/5 5/19/5 1/20/5
f 8/18/6 4/21/6 2/22/6 6/19/6
f 12/23/4 11/24/4 15/25/4 16/26/4
f 7/27/4 8/28/4 9/29/4 10/30/4
f 6/31/2 5/32/2 11/33/2 12/34/2
f 5/35/7 7/36/7 10/37/7 11/17/7
f 14/38/8 13/39/9 16/40/9 15/41/8
f 11/42/10 10/43/10 14/38/8 15/41/8
f 9/44/11 12/45/11 16/40/9 13/39/9
f 10/46/2 9/47/2 13/48/2 14/49/2
f 17/50/12 18/51/12 20/52/13 19/53/13
f 19/53/13 20/52/13 22/54/14 21/55/14
f 21/55/14 22/54/14 24/56/15 23/57/15
f 23/57/15 24/56/15 26/58/16 25/59/16
f 25/59/16 26/58/16 28/60/17 27/61/17
f 27/61/17 28/60/17 30/62/18 29/63/18
f 29/64/18 30/65/18 32/66/19 31/67/19
f 31/67/19 32/66/19 34/68/20 33/69/20
f 33/69/20 34/68/20 36/70/21 35/71/21
f 35/71/21 36/70/21 38/72/22 37/73/22
f 37/73/22 38/72/22 40/74/23 39/75/23
f 39/75/23 40/74/23 42/76/24 41/77/24
f 41/77/24 42/76/24 44/78/25 43/79/25
f 43/79/25 44/78/25 46/80/26 45/81/26
f 45/81/26 46/80/26 48/82/27 47/83/27
f 47/83/27 48/82/27 50/84/28 49/85/28
f 49/86/29 50/87/29 52/88/30 51/89/30
f 51/89/30 52/88/30 54/90/31 53/91/31
f 53/91/31 54/90/31 56/92/32 55/93/32
f 55/93/32 56/92/32 58/94/33 57/95/33
f 57/95/33 58/94/33 60/96/34 59/97/34
f 59/97/34 60/96/34 62/98/35 61/65/35
f 61/65/35 62/98/35 64/99/36 63/66/36
f 63/66/36 64/99/36 66/100/1 65/68/1
f 65/68/1 66/100/1 68/101/37 67/70/37
f 67/102/37 68/103/37 70/104/38 69/105/38
f 69/105/38 70/104/38 72/106/39 71/107/39
f 71/107/39 72/106/39 74/108/40 73/109/40
f 73/109/40 74/108/40 76/110/41 75/111/41
f 75/111/41 76/110/41 78/112/42 77/113/42
f 20/114/6 18/115/6 80/116/6 78/117/6 76/118/6 74/119/6 72/120/6 70/121/6 68/122/6 66/123/6 64/124/6 62/125/6 60/126/6 58/127/6 56/128/6 54/129/6 52/130/6 50/131/6 48/132/6 46/133/6 44/134/6 42/135/6 40/136/6 38/137/6 36/138/6 34/139/6 32/140/6 30/141/6 28/142/6 26/143/6 24/144/6 22/145/6
f 77/113/42 78/112/42 80/146/43 79/147/43
f 79/147/43 80/146/43 18/148/44 17/149/44
f 17/150/5 19/151/5 21/152/5 23/153/5 25/154/5 27/155/5 29/156/5 31/157/5 33/158/5 35/159/5 37/160/5 39/161/5 41/162/5 43/163/5 45/164/5 47/165/5 49/166/5 51/167/5 53/168/5 55/169/5 57/170/5 59/171/5 61/172/5 63/173/5 65/174/5 67/175/5 69/176/5 71/177/5 73/178/5 75/179/5 77/180/5 79/181/5
f 145/182/12 82/183/12 84/184/13 146/185/13
f 146/185/13 84/184/13 86/186/14 147/187/14
f 147/187/14 86/186/14 88/188/15 148/189/15
f 148/189/15 88/188/15 90/190/16 149/191/16
f 149/191/16 90/190/16 92/192/17 150/193/17
f 150/193/17 92/192/17 94/194/18 151/195/18
f 151/196/18 94/197/18 96/198/19 152/199/19
f 152/199/19 96/198/19 98/200/20 153/201/20
f 153/201/20 98/200/20 100/202/21 154/203/21
f 154/203/21 100/202/21 102/204/22 155/205/22
f 155/205/22 102/204/22 104/206/23 156/207/23
f 156/207/23 104/206/23 106/208/24 157/209/24
f 157/209/24 106/208/24 108/210/25 158/211/25
f 158/211/25 108/210/25 110/212/26 159/213/26
f 159/213/26 110/212/26 112/214/27 160/215/27
f 160/215/27 112/214/27 114/216/28 161/217/28
f 161/218/29 114/219/29 116/220/30 162/221/30
f 162/221/30 116/220/30 118/222/31 163/223/31
f 163/223/31 118/222/31 120/224/32 164/225/32
f 164/225/32 120/224/32 122/226/33 165/227/33
f 165/227/33 122/226/33 124/228/34 166/229/34
f 166/229/34 124/228/34 126/230/35 167/231/35
f 167/231/35 126/230/35 128/232/36 168/233/36
f 168/233/36 128/232/36 130/234/1 169/235/1
f 169/235/1 130/234/1 132/236/37 170/237/37
f 170/237/37 132/236/37 134/238/38 171/239/38
f 171/240/38 134/241/38 136/242/39 172/243/39
f 172/243/39 136/242/39 138/244/40 173/245/40
f 173/245/40 138/244/40 140/246/41 174/247/41
f 174/247/41 140/246/41 142/248/42 175/249/42
f 84/250/6 82/251/6 144/252/6 142/253/6 140/254/6 138/255/6 136/256/6 134/257/6 132/258/6 130/259/6 128/260/6 126/261/6 124/262/6 122/263/6 120/264/6 118/265/6 116/266/6 114/267/6 112/268/6 110/269/6 108/270/6 106/271/6 104/272/6 102/273/6 100/274/6 98/275/6 96/276/6 94/277/6 92/278/6 90/279/6 88/280/6 86/281/6
f 175/249/42 142/248/42 144/282/43 176/283/43
f 176/283/43 144/282/43 82/284/44 145/285/44
f 81/286/5 83/287/5 85/288/5 87/289/5 89/290/5 91/291/5 93/292/5 95/293/5 97/294/5 99/295/5 101/296/5 103/297/5 105/298/5 107/299/5 109/300/5 111/301/5 113/302/5 115/303/5 117/304/5 119/305/5 121/306/5 123/307/5 125/308/5 127/309/5 129/310/5 131/311/5 133/312/5 135/313/5 137/314/5 139/315/5 141/316/5 143/317/5
f 272/318/43 176/319/43 145/320/44 241/321/44
f 271/322/42 175/323/42 176/319/43 272/318/43
f 270/324/41 174/325/41 175/323/42 271/322/42
f 269/326/40 173/327/40 174/325/41 270/324/41
f 268/328/39 172/329/39 173/327/40 269/326/40
f 267/330/38 171/331/38 172/329/39 268/328/39
f 266/332/37 170/333/37 171/334/38 267/335/38
f 265/336/1 169/337/1 170/333/37 266/332/37
f 264/338/36 168/339/36 169/337/1 265/336/1
f 263/340/35 167/341/35 168/339/36 264/338/36
f 262/342/34 166/343/34 167/344/35 263/345/35
f 261/346/33 165/347/33 166/343/34 262/342/34
f 260/348/32 164/349/32 165/347/33 261/346/33
f 259/350/31 163/351/31 164/349/32 260/348/32
f 258/352/30 162/353/30 163/351/31 259/350/31
f 257/354/29 161/355/29 162/353/30 258/352/30
f 256/356/27 160/357/27 161/358/28 257/359/28
f 255/360/26 159/361/26 160/362/27 256/363/27
f 254/364/25 158/365/25 159/361/26 255/360/26
f 253/366/24 157/367/24 158/365/25 254/364/25
f 252/368/23 156/369/23 157/367/24 253/366/24
f 251/370/22 155/371/22 156/369/23 252/368/23
f 250/372/21 154/373/21 155/374/22 251/375/22
f 249/376/20 153/377/20 154/373/21 250/372/21
f 248/378/19 152/379/19 153/377/20 249/376/20
f 247/380/18 151/381/18 152/379/19 248/378/19
f 246/382/17 150/383/17 151/384/18 247/385/18
f 245/386/16 149/387/16 150/383/17 246/382/17
f 244/388/15 148/389/15 149/387/16 245/386/16
f 243/390/14 147/391/14 148/389/15 244/388/15
f 242/392/13 146/393/13 147/391/14 243/390/14
f 241/394/12 145/395/12 146/393/13 242/392/13
f 240/396/12 208/397/12 177/398/13 209/399/13
f 209/399/13 177/398/13 178/400/14 210/401/14
f 210/401/14 178/400/14 179/402/15 211/403/15
f 211/403/15 179/402/15 180/404/16 212/405/16
f 212/405/16 180/404/16 181/406/17 213/407/17
f 213/407/17 181/406/17 182/408/18 214/409/18
f 214/410/18 182/411/18 183/412/19 215/413/19
f 215/413/19 183/412/19 184/414/20 216/415/20
f 216/415/20 184/414/20 185/416/21 217/417/21
f 217/417/21 185/416/21 186/418/22 218/419/22
f 218/420/22 186/421/22 187/422/23 219/423/23
f 219/423/23 187/422/23 188/424/24 220/425/24
f 220/425/24 188/424/24 189/426/25 221/427/25
f 221/427/25 189/426/25 190/428/26 222/429/26
f 222/429/26 190/428/26 191/430/27 223/431/27
f 223/432/27 191/433/27 192/434/28 224/435/28
f 224/436/29 192/437/29 193/438/30 225/439/30
f 225/439/30 193/438/30 194/440/31 226/441/31
f 226/441/31 194/440/31 195/442/32 227/443/32
f 227/443/32 195/442/32 196/444/33 228/445/33
f 228/445/33 196/444/33 197/446/34 229/447/34
f 229/447/34 197/446/34 198/448/35 230/449/35
f 230/450/35 198/451/35 199/452/36 231/453/36
f 231/453/36 199/452/36 200/454/1 232/455/1
f 232/455/1 200/454/1 201/456/37 233/457/37
f 233/457/37 201/456/37 202/458/38 234/459/38
f 234/460/38 202/461/38 203/462/39 235/463/39
f 235/463/39 203/462/39 204/464/40 236/465/40
f 236/465/40 204/464/40 205/466/41 237/467/41
f 237/467/41 205/466/41 206/468/42 238/469/42
f 238/469/42 206/468/42 207/470/43 239/471/43
f 239/471/43 207/470/43 208/472/44 240/473/44
f 143/474/43 239/475/43 240/476/44 81/477/44
f 141/478/42 238/479/42 239/475/43 143/474/43
f 139/480/41 237/481/41 238/479/42 141/478/42
f 137/482/40 236/483/40 237/481/41 139/480/41
f 135/484/39 235/485/39 236/483/40 137/482/40
f 133/486/38 234/487/38 235/485/39 135/484/39
f 131/488/37 233/489/37 234/487/38 133/486/38
f 129/490/1 232/491/1 233/489/37 131/488/37
f 127/492/36 231/493/36 232/491/1 129/490/1
f 125/494/35 230/495/35 231/493/36 127/492/36
f 123/496/34 229/497/34 230/495/35 125/494/35
f 121/498/33 228/499/33 229/497/34 123/496/34
f 119/500/32 227/501/32 228/499/33 121/498/33
f 117/502/31 226/503/31 227/501/32 119/500/32
f 115/504/30 225/505/30 226/503/31 117/502/31
f 113/506/29 224/507/29 225/505/30 115/504/30
f 111/508/27 223/509/27 224/510/28 113/511/28
f 109/512/26 222/513/26 223/509/27 111/508/27
f 107/514/25 221/515/25 222/513/26 109/512/26
f 105/516/24 220/517/24 221/515/25 107/514/25
f 103/518/23 219/519/23 220/517/24 105/516/24
f 101/520/22 218/521/22 219/519/23 103/518/23
f 99/522/21 217/523/21 218/521/22 101/520/22
f 97/524/20 216/525/20 217/523/21 99/522/21
f 95/526/19 215/527/19 216/525/20 97/524/20
f 93/528/18 214/529/18 215/527/19 95/526/19
f 91/530/17 213/531/17 214/529/18 93/528/18
f 89/532/16 212/533/16 213/531/17 91/530/17
f 87/534/15 211/535/15 212/533/16 89/532/16
f 85/536/14 210/537/14 211/535/15 87/534/15
f 83/538/13 209/539/13 210/537/14 85/536/14
f 81/540/12 240/541/12 209/539/13 83/538/13
f 208/542/12 241/543/12 242/544/13 177/545/13
f 177/545/13 242/544/13 243/546/14 178/547/14
f 178/547/14 243/546/14 244/548/15 179/549/15
f 179/549/15 244/548/15 245/550/16 180/551/16
f 180/551/16 245/550/16 246/552/17 181/553/17
f 181/553/17 246/552/17 247/554/18 182/555/18
f 182/556/18 247/557/18 248/558/19 183/559/19
f 183/559/19 248/558/19 249/560/20 184/561/20
f 184/561/20 249/560/20 250/562/21 185/563/21
f 185/563/21 250/562/21 251/564/22 186/565/22
f 186/566/22 251/567/22 252/568/23 187/569/23
f 187/569/23 252/568/23 253/570/24 188/571/24
f 188/571/24 253/570/24 254/572/25 189/573/25
f 189/573/25 254/572/25 255/574/26 190/575/26
f 190/575/26 255/574/26 256/576/27 191/577/27
f 191/578/27 256/579/27 257/580/28 192/581/28
f 192/582/29 257/583/29 258/584/30 193/585/30
f 193/585/30 258/584/30 259/586/31 194/587/31
f 194/587/31 259/586/31 260/588/32 195/589/32
f 195/589/32 260/588/32 261/590/33 196/591/33
f 196/591/33 261/590/33 262/592/34 197/593/34
f 197/593/34 262/592/34 263/594/35 198/595/35
f 198/451/35 263/340/35 264/338/36 199/452/36
f 199/452/36 264/338/36 265/336/1 200/454/1
f 200/454/1 265/336/1 266/332/37 201/456/37
f 201/456/37 266/332/37 267/335/38 202/458/38
f 202/596/38 267/597/38 268/598/39 203/599/39
f 203/599/39 268/598/39 269/600/40 204/601/40
f 204/601/40 269/600/40 270/602/41 205/603/41
f 205/603/41 270/602/41 271/604/42 206/605/42
f 206/605/42 271/604/42 272/606/43 207/607/43
f 207/607/43 272/606/43 241/608/44 208/609/44
